<?xml version="1.0" encoding="utf-8"?>
<!-- Generator: Adobe Illustrator 23.0.1, SVG Export Plug-In . SVG Version: 6.00 Build 0)  -->
<svg version="1.1" id="Layer_1" xmlns="http://www.w3.org/2000/svg" xmlns:xlink="http://www.w3.org/1999/xlink" x="0px" y="0px"
	 viewBox="0 0 513 515" style="enable-background:new 0 0 513 515;" xml:space="preserve">
<style type="text/css">
	.st0{fill:#EAEAEA;}
	.st1{fill:#F37B00;}
</style>
<rect x="43" y="127" class="st0" width="433.9" height="257"/>
<path class="st1" d="M256.8,514C115.9,514.2-3.9,398.5,0.1,249.2c3.6-135.7,116-253.1,265-249.1c135.7,3.6,253,116.1,248.8,265.2
	C510,401.6,398.4,513.9,256.8,514z M71.2,347.6c0.3-1.1,0.6-2.2,0.7-3.2c2.2-20.3,21.7-37.6,44.8-34.6c17.7,2.3,32.6,16.8,34.5,34.6
	c0.3,2.8,1.2,3.5,3.9,3.5c41.3-0.1,82.5,0,123.8-0.1c9.8,0,17.6-7.8,17.6-17.6c0-58.9,0-117.9,0-176.8c0-10-7.7-17.6-17.8-17.6
	c-70.7,0-141.4,0-212.2,0c-1.4,0-2.8,0.1-4.1,0.4c-8.7,2.2-13.6,9-13.7,18.9c0,57.8,0,115.5,0,173.3
	C48.7,341.7,57.5,349.3,71.2,347.6z M305,260.1c0,24.6,0,49.3,0,73.9c0,0.2,0,0.4,0,0.6c0.1,7,5.2,12.9,12,13.1
	c10.2,0.3,20.4,0.1,30.5,0.1c1.9,0,2.3-0.8,2.3-2.5c0.1-2.8,0.2-5.6,0.6-8.3c3.6-21.7,26.2-36.8,47.6-31.9
	c19,4.4,31.6,19.8,31.7,39.2c0,2.9,0.9,3.6,3.7,3.6c9.4-0.1,18.9-0.1,28.3-0.1c9.6,0,15.1-5.2,15.1-14.8c0.1-25.5,0.1-51,0-76.5
	c0-3.8-0.8-7.4-3.6-10.4c-3.2-3.5-7.4-4.6-11.9-4.5c-11,0-22.1-0.2-33.1,0.1c-3.4,0.1-4.8-1.2-5.9-4.3
	c-6.1-18.3-12.4-36.4-18.7-54.7c-2.4-7-6.7-10.6-13.6-10.6c-23.9-0.1-47.8-0.1-71.7,0c-8.2,0-13.5,5.7-13.5,13.9
	C305,210.8,305,235.4,305,260.1z M140.3,349.4c0-15.9-13-28.9-28.7-28.8c-15.8,0.1-28.8,13.2-28.7,29c0.1,15.8,13.2,29,28.9,28.7
	C130.7,378,141.2,362,140.3,349.4z M389.8,373.3c15.8,0,28.8-12.7,28.8-28.4c0.1-16.2-12.5-28.6-28.4-29.1
	c-13.9-0.5-29.1,11-29.2,28.7C361,360.3,373.9,373.2,389.8,373.3z"/>
<path class="st1" d="M332.1,203.5v29.1c0,5.1,4.1,9.2,9.2,9.2h49.9c6.2,0,10.6-5.9,8.8-11.8l-8.8-29.1c-1.2-3.9-4.7-6.5-8.8-6.5
	h-41.2C336.2,194.3,332.1,198.5,332.1,203.5z"/>
</svg>
